<svg xmlns="http://www.w3.org/2000/svg" xmlns:xlink="http://www.w3.org/1999/xlink" width="284" zoomAndPan="magnify" viewBox="0 0 212.87999 200.249992" height="267" preserveAspectRatio="xMidYMid meet" version="1.0"><defs><clipPath id="f461ddede6"><path d="M 0.335938 4 L 199 4 L 199 198.753906 L 0.335938 198.753906 Z M 0.335938 4 " clip-rule="nonzero"/></clipPath><clipPath id="f1a4a0805b"><path d="M 184 82 L 212.421875 82 L 212.421875 111 L 184 111 Z M 184 82 " clip-rule="nonzero"/></clipPath><clipPath id="f2c88bc384"><path d="M 3.304688 151.929688 L 10.6875 151.929688 L 10.6875 159.308594 L 3.304688 159.308594 Z M 3.304688 151.929688 " clip-rule="nonzero"/></clipPath><clipPath id="2423a959f9"><path d="M 6.996094 151.929688 C 4.957031 151.929688 3.304688 153.582031 3.304688 155.617188 C 3.304688 157.65625 4.957031 159.308594 6.996094 159.308594 C 9.035156 159.308594 10.6875 157.65625 10.6875 155.617188 C 10.6875 153.582031 9.035156 151.929688 6.996094 151.929688 Z M 6.996094 151.929688 " clip-rule="nonzero"/></clipPath></defs><g clip-path="url(#f461ddede6)"><path fill="#ffffff" d="M 194.089844 55.28125 C 196.628906 55.28125 198.703125 53.210938 198.703125 50.675781 L 198.703125 23.046875 C 198.703125 12.867188 190.445312 4.625 180.25 4.625 L 56.15625 4.625 C 43.195312 4.625 32.628906 15.171875 32.628906 28.113281 L 32.628906 36.863281 L 14.40625 36.863281 C 6.65625 36.863281 0.335938 43.171875 0.335938 50.90625 L 0.335938 114.921875 C 0.335938 122.65625 6.65625 128.964844 14.40625 128.964844 L 32.628906 128.964844 L 32.628906 165.808594 L 16.160156 165.808594 C 13.625 165.808594 11.546875 167.882812 11.546875 170.414062 C 11.546875 178.980469 14.316406 186.257812 19.527344 191.367188 C 24.371094 196.109375 31.105469 198.734375 38.488281 198.734375 C 39.226562 198.734375 144.542969 198.734375 144.820312 198.734375 C 157.644531 197.722656 170.703125 188.652344 170.976562 170.597656 C 170.976562 170.550781 170.976562 171.152344 170.976562 55.28125 Z M 189.476562 23.046875 L 189.476562 46.070312 L 171.023438 46.070312 L 171.023438 23.046875 C 171.023438 17.980469 175.175781 13.835938 180.25 13.835938 C 185.324219 13.835938 189.476562 17.980469 189.476562 23.046875 Z M 9.5625 114.921875 L 9.5625 50.90625 C 9.5625 48.238281 11.730469 46.070312 14.40625 46.070312 L 50.851562 46.070312 C 53.527344 46.070312 55.695312 48.238281 55.695312 50.90625 L 55.695312 114.921875 C 55.695312 117.589844 53.527344 119.757812 50.851562 119.757812 L 14.40625 119.757812 C 11.730469 119.757812 9.5625 117.589844 9.5625 114.921875 Z M 38.535156 189.570312 C 30.96875 189.570312 22.941406 185.65625 21.144531 175.066406 L 113.636719 175.066406 C 114.46875 181.050781 116.867188 185.886719 120.234375 189.570312 Z M 161.796875 170.507812 C 161.566406 183.445312 152.292969 188.835938 144.3125 189.527344 L 139.886719 189.527344 C 131.488281 188.652344 122.539062 183.171875 122.539062 170.414062 C 122.539062 167.882812 120.464844 165.808594 117.925781 165.808594 L 41.855469 165.808594 L 41.855469 128.964844 L 50.851562 128.964844 C 58.601562 128.964844 64.921875 122.65625 64.921875 114.921875 L 64.921875 50.90625 C 64.921875 43.171875 58.601562 36.863281 50.851562 36.863281 L 41.855469 36.863281 L 41.855469 28.113281 C 41.855469 20.238281 48.269531 13.835938 56.15625 13.835938 L 164.289062 13.835938 C 162.71875 16.550781 161.796875 19.683594 161.796875 23.046875 C 161.796875 25.578125 161.796875 164.566406 161.796875 170.507812 Z M 161.796875 170.507812 " fill-opacity="1" fill-rule="nonzero"/></g><path fill="#ffffff" d="M 184.863281 69.097656 C 184.863281 71.632812 186.941406 73.703125 189.476562 73.703125 C 192.015625 73.703125 194.089844 71.632812 194.089844 69.097656 C 194.089844 66.566406 192.015625 64.492188 189.476562 64.492188 C 186.941406 64.492188 184.863281 66.566406 184.863281 69.097656 Z M 184.863281 69.097656 " fill-opacity="1" fill-rule="nonzero"/><path fill="#ffffff" d="M 194.089844 124.359375 C 194.089844 121.828125 192.015625 119.757812 189.476562 119.757812 C 186.941406 119.757812 184.863281 121.828125 184.863281 124.359375 C 184.863281 126.894531 186.941406 128.964844 189.476562 128.964844 C 192.015625 128.964844 194.089844 126.941406 194.089844 124.359375 Z M 194.089844 124.359375 " fill-opacity="1" fill-rule="nonzero"/><path fill="#ffffff" d="M 198.703125 151.992188 C 196.164062 151.992188 194.089844 154.066406 194.089844 156.597656 C 194.089844 159.132812 196.164062 161.203125 198.703125 161.203125 C 201.242188 161.203125 203.316406 159.132812 203.316406 156.597656 C 203.316406 154.066406 201.242188 151.992188 198.703125 151.992188 Z M 198.703125 151.992188 " fill-opacity="1" fill-rule="nonzero"/><path fill="#ffffff" d="M 18.789062 147.386719 C 18.789062 144.855469 16.714844 142.78125 14.175781 142.78125 C 11.640625 142.78125 9.5625 144.855469 9.5625 147.386719 C 9.5625 149.921875 11.640625 151.992188 14.175781 151.992188 C 16.714844 151.992188 18.789062 149.964844 18.789062 147.386719 Z M 18.789062 147.386719 " fill-opacity="1" fill-rule="nonzero"/><path fill="#ffffff" d="M 135.550781 104.789062 C 134.394531 104.328125 133.148438 104.375 131.996094 104.882812 C 130.011719 105.757812 129.550781 107.597656 129.503906 107.644531 C 113.730469 105.15625 100.535156 117.175781 100.535156 131.867188 C 100.535156 145.5 111.652344 156.597656 125.308594 156.597656 C 140.207031 156.597656 152.15625 143.152344 149.527344 127.445312 C 151.925781 126.570312 153.171875 123.855469 152.25 121.507812 C 149.34375 113.816406 143.207031 107.738281 135.550781 104.789062 Z M 141.453125 120.632812 L 133.378906 123.578125 L 136.378906 115.609375 C 138.363281 116.945312 140.070312 118.652344 141.453125 120.632812 Z M 125.308594 147.386719 C 116.726562 147.386719 109.761719 140.433594 109.761719 131.867188 C 109.761719 123.347656 116.910156 116.164062 126.136719 116.578125 L 121.203125 129.703125 C 120.046875 132.695312 122.308594 135.921875 125.539062 135.921875 C 126.046875 135.921875 126.597656 135.828125 127.105469 135.644531 L 140.667969 130.714844 C 140.667969 131.085938 140.714844 131.5 140.714844 131.867188 C 140.667969 140.433594 133.796875 147.386719 125.308594 147.386719 Z M 125.308594 147.386719 " fill-opacity="1" fill-rule="nonzero"/><path fill="#ffffff" d="M 14.175781 105.941406 L 23.402344 105.941406 L 23.402344 115.152344 L 14.175781 115.152344 Z M 14.175781 105.941406 " fill-opacity="1" fill-rule="nonzero"/><path fill="#ffffff" d="M 28.015625 105.941406 L 37.242188 105.941406 L 37.242188 115.152344 L 28.015625 115.152344 Z M 28.015625 105.941406 " fill-opacity="1" fill-rule="nonzero"/><path fill="#ffffff" d="M 41.855469 105.941406 L 51.082031 105.941406 L 51.082031 115.152344 L 41.855469 115.152344 Z M 41.855469 105.941406 " fill-opacity="1" fill-rule="nonzero"/><path fill="#ffffff" d="M 14.175781 92.125 L 23.402344 92.125 L 23.402344 101.335938 L 14.175781 101.335938 Z M 14.175781 92.125 " fill-opacity="1" fill-rule="nonzero"/><path fill="#ffffff" d="M 28.015625 92.125 L 37.242188 92.125 L 37.242188 101.335938 L 28.015625 101.335938 Z M 28.015625 92.125 " fill-opacity="1" fill-rule="nonzero"/><path fill="#ffffff" d="M 41.855469 92.125 L 51.082031 92.125 L 51.082031 101.335938 L 41.855469 101.335938 Z M 41.855469 92.125 " fill-opacity="1" fill-rule="nonzero"/><path fill="#ffffff" d="M 14.175781 78.308594 L 23.402344 78.308594 L 23.402344 87.519531 L 14.175781 87.519531 Z M 14.175781 78.308594 " fill-opacity="1" fill-rule="nonzero"/><path fill="#ffffff" d="M 28.015625 78.308594 L 37.242188 78.308594 L 37.242188 87.519531 L 28.015625 87.519531 Z M 28.015625 78.308594 " fill-opacity="1" fill-rule="nonzero"/><path fill="#ffffff" d="M 41.855469 78.308594 L 51.082031 78.308594 L 51.082031 87.519531 L 41.855469 87.519531 Z M 41.855469 78.308594 " fill-opacity="1" fill-rule="nonzero"/><path fill="#ffffff" d="M 18.789062 73.703125 L 46.46875 73.703125 C 49.007812 73.703125 51.082031 71.632812 51.082031 69.097656 L 51.082031 55.28125 C 51.082031 52.75 49.007812 50.675781 46.46875 50.675781 L 18.789062 50.675781 C 16.253906 50.675781 14.175781 52.75 14.175781 55.28125 L 14.175781 69.097656 C 14.175781 71.675781 16.253906 73.703125 18.789062 73.703125 Z M 23.402344 59.886719 L 41.855469 59.886719 L 41.855469 64.492188 L 23.402344 64.492188 Z M 23.402344 59.886719 " fill-opacity="1" fill-rule="nonzero"/><path fill="#ffffff" d="M 92.601562 27.652344 L 74.148438 27.652344 C 71.609375 27.652344 69.535156 29.722656 69.535156 32.257812 C 69.535156 34.789062 71.609375 36.863281 74.148438 36.863281 L 92.601562 36.863281 C 95.136719 36.863281 97.214844 34.789062 97.214844 32.257812 C 97.214844 29.722656 95.136719 27.652344 92.601562 27.652344 Z M 92.601562 27.652344 " fill-opacity="1" fill-rule="nonzero"/><path fill="#ffffff" d="M 147.957031 27.652344 L 106.441406 27.652344 C 103.902344 27.652344 101.828125 29.722656 101.828125 32.257812 C 101.828125 34.789062 103.902344 36.863281 106.441406 36.863281 L 147.957031 36.863281 C 150.496094 36.863281 152.570312 34.789062 152.570312 32.257812 C 152.570312 29.722656 150.496094 27.652344 147.957031 27.652344 Z M 147.957031 27.652344 " fill-opacity="1" fill-rule="nonzero"/><path fill="#ffffff" d="M 92.601562 41.464844 L 74.148438 41.464844 C 71.609375 41.464844 69.535156 43.539062 69.535156 46.070312 C 69.535156 48.605469 71.609375 50.675781 74.148438 50.675781 L 92.601562 50.675781 C 95.136719 50.675781 97.214844 48.605469 97.214844 46.070312 C 97.214844 43.539062 95.136719 41.464844 92.601562 41.464844 Z M 92.601562 41.464844 " fill-opacity="1" fill-rule="nonzero"/><path fill="#ffffff" d="M 147.957031 41.464844 L 106.441406 41.464844 C 103.902344 41.464844 101.828125 43.539062 101.828125 46.070312 C 101.828125 48.605469 103.902344 50.675781 106.441406 50.675781 L 147.957031 50.675781 C 150.496094 50.675781 152.570312 48.605469 152.570312 46.070312 C 152.570312 43.539062 150.496094 41.464844 147.957031 41.464844 Z M 147.957031 41.464844 " fill-opacity="1" fill-rule="nonzero"/><path fill="#ffffff" d="M 92.601562 55.28125 L 74.148438 55.28125 C 71.609375 55.28125 69.535156 57.355469 69.535156 59.886719 C 69.535156 62.421875 71.609375 64.492188 74.148438 64.492188 L 92.601562 64.492188 C 95.136719 64.492188 97.214844 62.421875 97.214844 59.886719 C 97.214844 57.355469 95.136719 55.28125 92.601562 55.28125 Z M 92.601562 55.28125 " fill-opacity="1" fill-rule="nonzero"/><path fill="#ffffff" d="M 147.957031 55.28125 L 106.441406 55.28125 C 103.902344 55.28125 101.828125 57.355469 101.828125 59.886719 C 101.828125 62.421875 103.902344 64.492188 106.441406 64.492188 L 147.957031 64.492188 C 150.496094 64.492188 152.570312 62.421875 152.570312 59.886719 C 152.570312 57.355469 150.496094 55.28125 147.957031 55.28125 Z M 147.957031 55.28125 " fill-opacity="1" fill-rule="nonzero"/><path fill="#ffffff" d="M 92.601562 69.097656 L 74.148438 69.097656 C 71.609375 69.097656 69.535156 71.171875 69.535156 73.703125 C 69.535156 76.238281 71.609375 78.308594 74.148438 78.308594 L 92.601562 78.308594 C 95.136719 78.308594 97.214844 76.238281 97.214844 73.703125 C 97.214844 71.171875 95.136719 69.097656 92.601562 69.097656 Z M 92.601562 69.097656 " fill-opacity="1" fill-rule="nonzero"/><path fill="#ffffff" d="M 147.957031 69.097656 L 106.441406 69.097656 C 103.902344 69.097656 101.828125 71.171875 101.828125 73.703125 C 101.828125 76.238281 103.902344 78.308594 106.441406 78.308594 L 147.957031 78.308594 C 150.496094 78.308594 152.570312 76.238281 152.570312 73.703125 C 152.570312 71.171875 150.496094 69.097656 147.957031 69.097656 Z M 147.957031 69.097656 " fill-opacity="1" fill-rule="nonzero"/><path fill="#ffffff" d="M 92.601562 82.914062 L 74.148438 82.914062 C 71.609375 82.914062 69.535156 84.988281 69.535156 87.519531 C 69.535156 90.050781 71.609375 92.125 74.148438 92.125 L 92.601562 92.125 C 95.136719 92.125 97.214844 90.050781 97.214844 87.519531 C 97.214844 84.988281 95.136719 82.914062 92.601562 82.914062 Z M 92.601562 82.914062 " fill-opacity="1" fill-rule="nonzero"/><path fill="#ffffff" d="M 147.957031 82.914062 L 106.441406 82.914062 C 103.902344 82.914062 101.828125 84.988281 101.828125 87.519531 C 101.828125 90.050781 103.902344 92.125 106.441406 92.125 L 147.957031 92.125 C 150.496094 92.125 152.570312 90.050781 152.570312 87.519531 C 152.570312 84.988281 150.496094 82.914062 147.957031 82.914062 Z M 147.957031 82.914062 " fill-opacity="1" fill-rule="nonzero"/><path fill="#ffffff" d="M 46.46875 138.175781 L 55.695312 138.175781 L 55.695312 147.386719 L 46.46875 147.386719 Z M 46.46875 138.175781 " fill-opacity="1" fill-rule="nonzero"/><path fill="#ffffff" d="M 60.308594 138.175781 L 83.375 138.175781 L 83.375 147.386719 L 60.308594 147.386719 Z M 60.308594 138.175781 " fill-opacity="1" fill-rule="nonzero"/><path fill="#ffffff" d="M 46.46875 151.992188 L 55.695312 151.992188 L 55.695312 161.203125 L 46.46875 161.203125 Z M 46.46875 151.992188 " fill-opacity="1" fill-rule="nonzero"/><path fill="#ffffff" d="M 60.308594 151.992188 L 83.375 151.992188 L 83.375 161.203125 L 60.308594 161.203125 Z M 60.308594 151.992188 " fill-opacity="1" fill-rule="nonzero"/><path fill="#ffffff" d="M 191.785156 170.414062 C 185.417969 170.414062 180.25 175.570312 180.25 181.925781 C 180.25 188.28125 185.417969 193.441406 191.785156 193.441406 C 198.148438 193.441406 203.316406 188.28125 203.316406 181.925781 C 203.316406 175.570312 198.148438 170.414062 191.785156 170.414062 Z M 191.785156 184.230469 C 190.492188 184.230469 189.476562 183.214844 189.476562 181.925781 C 189.476562 180.636719 190.492188 179.625 191.785156 179.625 C 193.074219 179.625 194.089844 180.636719 194.089844 181.925781 C 194.089844 183.214844 193.074219 184.230469 191.785156 184.230469 Z M 191.785156 184.230469 " fill-opacity="1" fill-rule="nonzero"/><g clip-path="url(#f1a4a0805b)"><path fill="#ffffff" d="M 198.703125 82.914062 C 191.089844 82.914062 184.863281 89.132812 184.863281 96.730469 C 184.863281 104.328125 191.089844 110.546875 198.703125 110.546875 C 206.316406 110.546875 212.542969 104.328125 212.542969 96.730469 C 212.542969 89.132812 206.316406 82.914062 198.703125 82.914062 Z M 198.703125 101.335938 C 196.164062 101.335938 194.089844 99.261719 194.089844 96.730469 C 194.089844 94.195312 196.164062 92.125 198.703125 92.125 C 201.242188 92.125 203.316406 94.195312 203.316406 96.730469 C 203.316406 99.261719 201.242188 101.335938 198.703125 101.335938 Z M 198.703125 101.335938 " fill-opacity="1" fill-rule="nonzero"/></g><path fill="#ffffff" d="M 16.484375 23.046875 C 22.847656 23.046875 28.015625 17.886719 28.015625 11.53125 C 28.015625 5.175781 22.847656 0.0195312 16.484375 0.0195312 C 10.117188 0.0195312 4.949219 5.175781 4.949219 11.53125 C 4.949219 17.886719 10.117188 23.046875 16.484375 23.046875 Z M 16.484375 9.230469 C 17.773438 9.230469 18.789062 10.242188 18.789062 11.53125 C 18.789062 12.820312 17.773438 13.835938 16.484375 13.835938 C 15.191406 13.835938 14.175781 12.820312 14.175781 11.53125 C 14.175781 10.289062 15.191406 9.230469 16.484375 9.230469 Z M 16.484375 9.230469 " fill-opacity="1" fill-rule="nonzero"/><g clip-path="url(#f2c88bc384)"><g clip-path="url(#2423a959f9)"><path fill="#ffffff" d="M 3.304688 151.929688 L 10.6875 151.929688 L 10.6875 159.308594 L 3.304688 159.308594 Z M 3.304688 151.929688 " fill-opacity="1" fill-rule="nonzero"/></g></g></svg>