<svg xmlns="http://www.w3.org/2000/svg" xmlns:xlink="http://www.w3.org/1999/xlink" width="284" zoomAndPan="magnify" viewBox="0 0 212.87999 200.249992" height="267" preserveAspectRatio="xMidYMid meet" version="1.0"><defs><clipPath id="1f9d33db17"><path d="M 0.335938 4 L 199 4 L 199 198.753906 L 0.335938 198.753906 Z M 0.335938 4 " clip-rule="nonzero"/></clipPath><clipPath id="0de3ef02a1"><path d="M 184 82 L 212.421875 82 L 212.421875 111 L 184 111 Z M 184 82 " clip-rule="nonzero"/></clipPath><clipPath id="07f6cff1b9"><path d="M 3.304688 151.929688 L 10.6875 151.929688 L 10.6875 159.308594 L 3.304688 159.308594 Z M 3.304688 151.929688 " clip-rule="nonzero"/></clipPath><clipPath id="e0af007531"><path d="M 6.996094 151.929688 C 4.957031 151.929688 3.304688 153.582031 3.304688 155.617188 C 3.304688 157.65625 4.957031 159.308594 6.996094 159.308594 C 9.035156 159.308594 10.6875 157.65625 10.6875 155.617188 C 10.6875 153.582031 9.035156 151.929688 6.996094 151.929688 Z M 6.996094 151.929688 " clip-rule="nonzero"/></clipPath></defs><g clip-path="url(#1f9d33db17)"><path fill="#000000" d="M 193.78125 55.289062 C 196.3125 55.289062 198.386719 53.214844 198.386719 50.683594 L 198.386719 23.046875 C 198.386719 12.871094 190.140625 4.625 179.964844 4.625 L 56.066406 4.625 C 43.125 4.625 32.578125 15.171875 32.578125 28.113281 L 32.578125 36.867188 L 14.386719 36.867188 C 6.648438 36.867188 0.335938 43.175781 0.335938 50.914062 L 0.335938 114.933594 C 0.335938 122.671875 6.648438 128.980469 14.386719 128.980469 L 32.578125 128.980469 L 32.578125 165.828125 L 16.136719 165.828125 C 13.601562 165.828125 11.53125 167.902344 11.53125 170.433594 C 11.53125 179 14.292969 186.277344 19.496094 191.390625 C 24.332031 196.132812 31.058594 198.757812 38.425781 198.757812 C 39.164062 198.757812 144.316406 198.757812 144.589844 198.757812 C 157.394531 197.746094 170.429688 188.671875 170.707031 170.617188 C 170.707031 170.570312 170.707031 171.171875 170.707031 55.289062 Z M 189.175781 23.046875 L 189.175781 46.078125 L 170.75 46.078125 L 170.75 23.046875 C 170.75 17.980469 174.898438 13.835938 179.964844 13.835938 C 185.03125 13.835938 189.175781 17.980469 189.175781 23.046875 Z M 9.550781 114.933594 L 9.550781 50.914062 C 9.550781 48.242188 11.714844 46.078125 14.386719 46.078125 L 50.769531 46.078125 C 53.441406 46.078125 55.605469 48.242188 55.605469 50.914062 L 55.605469 114.933594 C 55.605469 117.605469 53.441406 119.769531 50.769531 119.769531 L 14.386719 119.769531 C 11.714844 119.769531 9.550781 117.605469 9.550781 114.933594 Z M 38.472656 189.59375 C 30.917969 189.59375 22.90625 185.679688 21.109375 175.085938 L 113.457031 175.085938 C 114.285156 181.074219 116.679688 185.910156 120.042969 189.59375 Z M 161.539062 170.527344 C 161.308594 183.46875 152.050781 188.855469 144.085938 189.546875 L 139.664062 189.546875 C 131.28125 188.671875 122.34375 183.191406 122.34375 170.433594 C 122.34375 167.902344 120.273438 165.828125 117.738281 165.828125 L 41.789062 165.828125 L 41.789062 128.980469 L 50.769531 128.980469 C 58.507812 128.980469 64.820312 122.671875 64.820312 114.933594 L 64.820312 50.914062 C 64.820312 43.175781 58.507812 36.867188 50.769531 36.867188 L 41.789062 36.867188 L 41.789062 28.113281 C 41.789062 20.238281 48.191406 13.835938 56.066406 13.835938 L 164.027344 13.835938 C 162.460938 16.554688 161.539062 19.6875 161.539062 23.046875 C 161.539062 25.582031 161.539062 164.585938 161.539062 170.527344 Z M 161.539062 170.527344 " fill-opacity="1" fill-rule="nonzero"/></g><path fill="#000000" d="M 184.570312 69.105469 C 184.570312 71.640625 186.640625 73.710938 189.175781 73.710938 C 191.707031 73.710938 193.78125 71.640625 193.78125 69.105469 C 193.78125 66.574219 191.707031 64.5 189.175781 64.5 C 186.640625 64.5 184.570312 66.574219 184.570312 69.105469 Z M 184.570312 69.105469 " fill-opacity="1" fill-rule="nonzero"/><path fill="#000000" d="M 193.78125 124.375 C 193.78125 121.84375 191.707031 119.769531 189.175781 119.769531 C 186.640625 119.769531 184.570312 121.84375 184.570312 124.375 C 184.570312 126.910156 186.640625 128.980469 189.175781 128.980469 C 191.707031 128.980469 193.78125 126.957031 193.78125 124.375 Z M 193.78125 124.375 " fill-opacity="1" fill-rule="nonzero"/><path fill="#000000" d="M 198.386719 152.011719 C 195.851562 152.011719 193.78125 154.082031 193.78125 156.617188 C 193.78125 159.148438 195.851562 161.222656 198.386719 161.222656 C 200.917969 161.222656 202.992188 159.148438 202.992188 156.617188 C 202.992188 154.082031 200.917969 152.011719 198.386719 152.011719 Z M 198.386719 152.011719 " fill-opacity="1" fill-rule="nonzero"/><path fill="#000000" d="M 18.761719 147.40625 C 18.761719 144.871094 16.6875 142.800781 14.15625 142.800781 C 11.621094 142.800781 9.550781 144.871094 9.550781 147.40625 C 9.550781 149.9375 11.621094 152.011719 14.15625 152.011719 C 16.6875 152.011719 18.761719 149.984375 18.761719 147.40625 Z M 18.761719 147.40625 " fill-opacity="1" fill-rule="nonzero"/><path fill="#000000" d="M 135.332031 104.800781 C 134.183594 104.339844 132.9375 104.386719 131.785156 104.894531 C 129.804688 105.769531 129.347656 107.609375 129.300781 107.65625 C 113.546875 105.167969 100.375 117.191406 100.375 131.882812 C 100.375 145.515625 111.476562 156.617188 125.109375 156.617188 C 139.984375 156.617188 151.914062 143.167969 149.289062 127.460938 C 151.683594 126.585938 152.925781 123.871094 152.007812 121.519531 C 149.105469 113.828125 142.980469 107.75 135.332031 104.800781 Z M 141.230469 120.644531 L 133.167969 123.59375 L 136.164062 115.625 C 138.144531 116.960938 139.847656 118.664062 141.230469 120.644531 Z M 125.109375 147.40625 C 116.542969 147.40625 109.585938 140.449219 109.585938 131.882812 C 109.585938 123.363281 116.726562 116.175781 125.9375 116.59375 L 121.007812 129.71875 C 119.859375 132.710938 122.113281 135.9375 125.339844 135.9375 C 125.84375 135.9375 126.398438 135.84375 126.90625 135.660156 L 140.445312 130.730469 C 140.445312 131.101562 140.492188 131.515625 140.492188 131.882812 C 140.445312 140.449219 133.582031 147.40625 125.109375 147.40625 Z M 125.109375 147.40625 " fill-opacity="1" fill-rule="nonzero"/><path fill="#000000" d="M 14.15625 105.953125 L 23.367188 105.953125 L 23.367188 115.164062 L 14.15625 115.164062 Z M 14.15625 105.953125 " fill-opacity="1" fill-rule="nonzero"/><path fill="#000000" d="M 27.972656 105.953125 L 37.183594 105.953125 L 37.183594 115.164062 L 27.972656 115.164062 Z M 27.972656 105.953125 " fill-opacity="1" fill-rule="nonzero"/><path fill="#000000" d="M 41.789062 105.953125 L 51 105.953125 L 51 115.164062 L 41.789062 115.164062 Z M 41.789062 105.953125 " fill-opacity="1" fill-rule="nonzero"/><path fill="#000000" d="M 14.15625 92.136719 L 23.367188 92.136719 L 23.367188 101.347656 L 14.15625 101.347656 Z M 14.15625 92.136719 " fill-opacity="1" fill-rule="nonzero"/><path fill="#000000" d="M 27.972656 92.136719 L 37.183594 92.136719 L 37.183594 101.347656 L 27.972656 101.347656 Z M 27.972656 92.136719 " fill-opacity="1" fill-rule="nonzero"/><path fill="#000000" d="M 41.789062 92.136719 L 51 92.136719 L 51 101.347656 L 41.789062 101.347656 Z M 41.789062 92.136719 " fill-opacity="1" fill-rule="nonzero"/><path fill="#000000" d="M 14.15625 78.316406 L 23.367188 78.316406 L 23.367188 87.53125 L 14.15625 87.53125 Z M 14.15625 78.316406 " fill-opacity="1" fill-rule="nonzero"/><path fill="#000000" d="M 27.972656 78.316406 L 37.183594 78.316406 L 37.183594 87.53125 L 27.972656 87.53125 Z M 27.972656 78.316406 " fill-opacity="1" fill-rule="nonzero"/><path fill="#000000" d="M 41.789062 78.316406 L 51 78.316406 L 51 87.53125 L 41.789062 87.53125 Z M 41.789062 78.316406 " fill-opacity="1" fill-rule="nonzero"/><path fill="#000000" d="M 18.761719 73.710938 L 46.394531 73.710938 C 48.929688 73.710938 51 71.640625 51 69.105469 L 51 55.289062 C 51 52.753906 48.929688 50.683594 46.394531 50.683594 L 18.761719 50.683594 C 16.226562 50.683594 14.15625 52.753906 14.15625 55.289062 L 14.15625 69.105469 C 14.15625 71.6875 16.226562 73.710938 18.761719 73.710938 Z M 23.367188 59.894531 L 41.789062 59.894531 L 41.789062 64.5 L 23.367188 64.5 Z M 23.367188 59.894531 " fill-opacity="1" fill-rule="nonzero"/><path fill="#000000" d="M 92.453125 27.652344 L 74.03125 27.652344 C 71.496094 27.652344 69.425781 29.726562 69.425781 32.261719 C 69.425781 34.792969 71.496094 36.867188 74.03125 36.867188 L 92.453125 36.867188 C 94.988281 36.867188 97.058594 34.792969 97.058594 32.261719 C 97.058594 29.726562 94.988281 27.652344 92.453125 27.652344 Z M 92.453125 27.652344 " fill-opacity="1" fill-rule="nonzero"/><path fill="#000000" d="M 147.722656 27.652344 L 106.269531 27.652344 C 103.738281 27.652344 101.664062 29.726562 101.664062 32.261719 C 101.664062 34.792969 103.738281 36.867188 106.269531 36.867188 L 147.722656 36.867188 C 150.257812 36.867188 152.328125 34.792969 152.328125 32.261719 C 152.328125 29.726562 150.257812 27.652344 147.722656 27.652344 Z M 147.722656 27.652344 " fill-opacity="1" fill-rule="nonzero"/><path fill="#000000" d="M 92.453125 41.472656 L 74.03125 41.472656 C 71.496094 41.472656 69.425781 43.542969 69.425781 46.078125 C 69.425781 48.609375 71.496094 50.683594 74.03125 50.683594 L 92.453125 50.683594 C 94.988281 50.683594 97.058594 48.609375 97.058594 46.078125 C 97.058594 43.542969 94.988281 41.472656 92.453125 41.472656 Z M 92.453125 41.472656 " fill-opacity="1" fill-rule="nonzero"/><path fill="#000000" d="M 147.722656 41.472656 L 106.269531 41.472656 C 103.738281 41.472656 101.664062 43.542969 101.664062 46.078125 C 101.664062 48.609375 103.738281 50.683594 106.269531 50.683594 L 147.722656 50.683594 C 150.257812 50.683594 152.328125 48.609375 152.328125 46.078125 C 152.328125 43.542969 150.257812 41.472656 147.722656 41.472656 Z M 147.722656 41.472656 " fill-opacity="1" fill-rule="nonzero"/><path fill="#000000" d="M 92.453125 55.289062 L 74.03125 55.289062 C 71.496094 55.289062 69.425781 57.363281 69.425781 59.894531 C 69.425781 62.429688 71.496094 64.5 74.03125 64.5 L 92.453125 64.5 C 94.988281 64.5 97.058594 62.429688 97.058594 59.894531 C 97.058594 57.363281 94.988281 55.289062 92.453125 55.289062 Z M 92.453125 55.289062 " fill-opacity="1" fill-rule="nonzero"/><path fill="#000000" d="M 147.722656 55.289062 L 106.269531 55.289062 C 103.738281 55.289062 101.664062 57.363281 101.664062 59.894531 C 101.664062 62.429688 103.738281 64.5 106.269531 64.5 L 147.722656 64.5 C 150.257812 64.5 152.328125 62.429688 152.328125 59.894531 C 152.328125 57.363281 150.257812 55.289062 147.722656 55.289062 Z M 147.722656 55.289062 " fill-opacity="1" fill-rule="nonzero"/><path fill="#000000" d="M 92.453125 69.105469 L 74.03125 69.105469 C 71.496094 69.105469 69.425781 71.179688 69.425781 73.710938 C 69.425781 76.246094 71.496094 78.316406 74.03125 78.316406 L 92.453125 78.316406 C 94.988281 78.316406 97.058594 76.246094 97.058594 73.710938 C 97.058594 71.179688 94.988281 69.105469 92.453125 69.105469 Z M 92.453125 69.105469 " fill-opacity="1" fill-rule="nonzero"/><path fill="#000000" d="M 147.722656 69.105469 L 106.269531 69.105469 C 103.738281 69.105469 101.664062 71.179688 101.664062 73.710938 C 101.664062 76.246094 103.738281 78.316406 106.269531 78.316406 L 147.722656 78.316406 C 150.257812 78.316406 152.328125 76.246094 152.328125 73.710938 C 152.328125 71.179688 150.257812 69.105469 147.722656 69.105469 Z M 147.722656 69.105469 " fill-opacity="1" fill-rule="nonzero"/><path fill="#000000" d="M 92.453125 82.921875 L 74.03125 82.921875 C 71.496094 82.921875 69.425781 84.996094 69.425781 87.53125 C 69.425781 90.0625 71.496094 92.136719 74.03125 92.136719 L 92.453125 92.136719 C 94.988281 92.136719 97.058594 90.0625 97.058594 87.53125 C 97.058594 84.996094 94.988281 82.921875 92.453125 82.921875 Z M 92.453125 82.921875 " fill-opacity="1" fill-rule="nonzero"/><path fill="#000000" d="M 147.722656 82.921875 L 106.269531 82.921875 C 103.738281 82.921875 101.664062 84.996094 101.664062 87.53125 C 101.664062 90.0625 103.738281 92.136719 106.269531 92.136719 L 147.722656 92.136719 C 150.257812 92.136719 152.328125 90.0625 152.328125 87.53125 C 152.328125 84.996094 150.257812 82.921875 147.722656 82.921875 Z M 147.722656 82.921875 " fill-opacity="1" fill-rule="nonzero"/><path fill="#000000" d="M 46.394531 138.191406 L 55.605469 138.191406 L 55.605469 147.40625 L 46.394531 147.40625 Z M 46.394531 138.191406 " fill-opacity="1" fill-rule="nonzero"/><path fill="#000000" d="M 60.210938 138.191406 L 83.242188 138.191406 L 83.242188 147.40625 L 60.210938 147.40625 Z M 60.210938 138.191406 " fill-opacity="1" fill-rule="nonzero"/><path fill="#000000" d="M 46.394531 152.011719 L 55.605469 152.011719 L 55.605469 161.222656 L 46.394531 161.222656 Z M 46.394531 152.011719 " fill-opacity="1" fill-rule="nonzero"/><path fill="#000000" d="M 60.210938 152.011719 L 83.242188 152.011719 L 83.242188 161.222656 L 60.210938 161.222656 Z M 60.210938 152.011719 " fill-opacity="1" fill-rule="nonzero"/><path fill="#000000" d="M 191.476562 170.433594 C 185.121094 170.433594 179.964844 175.59375 179.964844 181.949219 C 179.964844 188.304688 185.121094 193.460938 191.476562 193.460938 C 197.832031 193.460938 202.992188 188.304688 202.992188 181.949219 C 202.992188 175.59375 197.832031 170.433594 191.476562 170.433594 Z M 191.476562 184.25 C 190.1875 184.25 189.175781 183.238281 189.175781 181.949219 C 189.175781 180.660156 190.1875 179.644531 191.476562 179.644531 C 192.765625 179.644531 193.78125 180.660156 193.78125 181.949219 C 193.78125 183.238281 192.765625 184.25 191.476562 184.25 Z M 191.476562 184.25 " fill-opacity="1" fill-rule="nonzero"/><g clip-path="url(#0de3ef02a1)"><path fill="#000000" d="M 198.386719 82.921875 C 190.785156 82.921875 184.570312 89.140625 184.570312 96.742188 C 184.570312 104.339844 190.785156 110.558594 198.386719 110.558594 C 205.984375 110.558594 212.203125 104.339844 212.203125 96.742188 C 212.203125 89.140625 205.984375 82.921875 198.386719 82.921875 Z M 198.386719 101.347656 C 195.851562 101.347656 193.78125 99.273438 193.78125 96.742188 C 193.78125 94.207031 195.851562 92.136719 198.386719 92.136719 C 200.917969 92.136719 202.992188 94.207031 202.992188 96.742188 C 202.992188 99.273438 200.917969 101.347656 198.386719 101.347656 Z M 198.386719 101.347656 " fill-opacity="1" fill-rule="nonzero"/></g><path fill="#000000" d="M 16.457031 23.046875 C 22.8125 23.046875 27.972656 17.890625 27.972656 11.535156 C 27.972656 5.179688 22.8125 0.0195312 16.457031 0.0195312 C 10.101562 0.0195312 4.941406 5.179688 4.941406 11.535156 C 4.941406 17.890625 10.101562 23.046875 16.457031 23.046875 Z M 16.457031 9.230469 C 17.746094 9.230469 18.761719 10.246094 18.761719 11.535156 C 18.761719 12.824219 17.746094 13.835938 16.457031 13.835938 C 15.167969 13.835938 14.15625 12.824219 14.15625 11.535156 C 14.15625 10.289062 15.167969 9.230469 16.457031 9.230469 Z M 16.457031 9.230469 " fill-opacity="1" fill-rule="nonzero"/><g clip-path="url(#07f6cff1b9)"><g clip-path="url(#e0af007531)"><path fill="#000000" d="M 3.304688 151.929688 L 10.6875 151.929688 L 10.6875 159.308594 L 3.304688 159.308594 Z M 3.304688 151.929688 " fill-opacity="1" fill-rule="nonzero"/></g></g></svg>